<svg width="16" height="16" viewBox="0 0 16 16" xmlns="http://www.w3.org/2000/svg">
  <path fill-rule="evenodd" clip-rule="evenodd" d="M2.98006 2.9797C3.17533 2.78444 3.49191 2.78444 3.68717 2.9797L8.00028 7.29281L12.3134 2.9797C12.5087 2.78444 12.8252 2.78444 13.0205 2.9797C13.2158 3.17496 13.2158 3.49154 13.0205 3.68681L8.70739 7.99992L13.0205 12.313C13.2158 12.5083 13.2158 12.8249 13.0205 13.0201C12.8252 13.2154 12.5087 13.2154 12.3134 13.0201L8.00028 8.70702L3.68717 13.0201C3.49191 13.2154 3.17533 13.2154 2.98006 13.0201C2.7848 12.8249 2.7848 12.5083 2.98006 12.313L7.29318 7.99992L2.98006 3.68681C2.7848 3.49154 2.7848 3.17496 2.98006 2.9797Z" />
</svg>
