<svg width="32" height="32" viewBox="0 0 32 32" xmlns="http://www.w3.org/2000/svg">
  <path fill-rule="evenodd" clip-rule="evenodd" d="M9.33337 3.66675C9.88566 3.66675 10.3334 4.11446 10.3334 4.66675V11.3334C10.3334 11.8857 9.88566 12.3334 9.33337 12.3334C8.78109 12.3334 8.33337 11.8857 8.33337 11.3334V4.66675C8.33337 4.11446 8.78109 3.66675 9.33337 3.66675ZM22.6667 3.66675C23.219 3.66675 23.6667 4.11446 23.6667 4.66675V7.00008H25.3334C26.6221 7.00008 27.6667 8.04477 27.6667 9.33341V14.6667C27.6667 15.9554 26.6221 17.0001 25.3334 17.0001H20C18.7114 17.0001 17.6667 15.9554 17.6667 14.6667V9.33341C17.6667 8.04477 18.7113 7.00008 20 7.00008H21.6667V4.66675C21.6667 4.11446 22.1144 3.66675 22.6667 3.66675ZM20 9.00008C19.8159 9.00008 19.6667 9.14931 19.6667 9.33341V14.6667C19.6667 14.8509 19.8159 15.0001 20 15.0001H25.3334C25.5175 15.0001 25.6667 14.8509 25.6667 14.6667V9.33341C25.6667 9.14931 25.5175 9.00008 25.3334 9.00008H20ZM4.33337 17.3334C4.33337 16.0447 5.37806 15.0001 6.66671 15.0001H12C13.2887 15.0001 14.3334 16.0447 14.3334 17.3334V22.6667C14.3334 23.9554 13.2887 25.0001 12 25.0001H10.3334V27.3334C10.3334 27.8857 9.88566 28.3334 9.33337 28.3334C8.78109 28.3334 8.33337 27.8857 8.33337 27.3334V25.0001H6.66671C5.37806 25.0001 4.33337 23.9554 4.33337 22.6667V17.3334ZM12 23.0001C12.1841 23.0001 12.3334 22.8508 12.3334 22.6667V17.3334C12.3334 17.1493 12.1841 17.0001 12 17.0001H6.66671C6.48261 17.0001 6.33337 17.1493 6.33337 17.3334V22.6667C6.33337 22.8508 6.48261 23.0001 6.66671 23.0001H12ZM22.6667 19.6667C23.219 19.6667 23.6667 20.1145 23.6667 20.6667V27.3334C23.6667 27.8857 23.219 28.3334 22.6667 28.3334C22.1144 28.3334 21.6667 27.8857 21.6667 27.3334V20.6667C21.6667 20.1145 22.1144 19.6667 22.6667 19.6667Z" />
</svg>
