<svg width="24" height="24" viewBox="0 0 24 24" fill="none" xmlns="http://www.w3.org/2000/svg">
<path fill-rule="evenodd" clip-rule="evenodd" d="M6.3544 8.11833C6.56521 7.76178 7.02515 7.64362 7.3817 7.85443L10.3237 9.59383C11.1681 10.093 11.617 10.25 12 10.25C12.383 10.25 12.8319 10.093 13.6763 9.59383L16.6183 7.85443C16.9749 7.64362 17.4348 7.76177 17.6456 8.11833C17.8564 8.47489 17.7383 8.93483 17.3817 9.14564L14.4397 10.885C14.4397 10.885 14.4397 10.885 14.4397 10.885C13.5689 11.3999 12.8174 11.75 12 11.75C11.1826 11.75 10.4312 11.3999 9.56033 10.885C9.56032 10.885 9.56033 10.885 9.56033 10.885L6.61831 9.14564C6.26175 8.93483 6.14359 8.47489 6.3544 8.11833Z" fill="#F24D0D"/>
<path fill-rule="evenodd" clip-rule="evenodd" d="M9.07999 2.7868C11.033 2.73773 12.967 2.73773 14.92 2.78681L14.9782 2.78827C16.5031 2.82656 17.73 2.85737 18.7133 3.02862C19.7428 3.20791 20.5795 3.55178 21.2863 4.26132C21.9903 4.9679 22.3324 5.79259 22.5083 6.80542C22.6757 7.76989 22.7012 8.96705 22.7328 10.4501L22.734 10.5084C22.734 10.5084 22.734 10.5084 22.734 10.5084C22.7554 11.5046 22.7554 12.4953 22.734 13.4916C22.734 13.4916 22.734 13.4916 22.734 13.4916L22.7328 13.55C22.7012 15.033 22.6757 16.2301 22.5083 17.1946C22.3324 18.2074 21.9903 19.0321 21.2864 19.7386C20.5795 20.4482 19.7428 20.7921 18.7133 20.9714C17.7301 21.1426 16.5032 21.1734 14.9786 21.2117L14.92 21.2132C12.967 21.2623 11.033 21.2623 9.08 21.2132L9.02146 21.2117C7.49681 21.1734 6.26995 21.1426 5.28671 20.9714C4.2572 20.7921 3.42047 20.4482 2.7136 19.7386C2.00971 19.0321 1.66764 18.2074 1.49176 17.1946C1.3243 16.2302 1.29879 15.0332 1.26719 13.5504L1.26594 13.4916C1.24469 12.4953 1.24469 11.5047 1.26594 10.5083L1.26719 10.4496C1.29878 8.9668 1.32429 7.76977 1.49176 6.8054C1.66764 5.7926 2.00972 4.96791 2.71362 4.26133C3.42048 3.55177 4.2572 3.20789 5.2867 3.0286C6.27002 2.85735 7.497 2.82654 9.02183 2.78826L9.07999 2.7868ZM14.8824 4.28633C12.9544 4.23789 11.0456 4.23789 9.11766 4.28632C7.521 4.32644 6.4053 4.35637 5.54406 4.50636C4.71653 4.65048 4.20056 4.89409 3.77629 5.31997C3.34907 5.74882 3.10923 6.25824 2.96964 7.06205C2.82385 7.90159 2.79876 8.98483 2.76559 10.5403C2.7448 11.5154 2.7448 12.4846 2.76559 13.4596C2.79877 15.0151 2.82385 16.0984 2.96964 16.9379C3.10923 17.7418 3.34906 18.2512 3.77628 18.68C4.20055 19.1059 4.71653 19.3495 5.54406 19.4937C6.40529 19.6436 7.521 19.6736 9.11769 19.7137C11.0456 19.7622 12.9544 19.7622 14.8824 19.7137C16.479 19.6736 17.5947 19.6436 18.456 19.4937C19.2835 19.3495 19.7994 19.1059 20.2236 18.68C20.6509 18.2512 20.8908 17.7417 21.0304 16.9379C21.1762 16.0984 21.2012 15.0152 21.2344 13.4597C21.2552 12.4847 21.2552 11.5154 21.2344 10.5405C21.2012 8.98495 21.1762 7.90161 21.0304 7.06207C20.8908 6.25826 20.6509 5.74885 20.2237 5.32C19.7994 4.89413 19.2835 4.65049 18.456 4.50637C17.5947 4.35639 16.479 4.32645 14.8824 4.28633Z" fill="#F24D0D"/>
</svg>
