<svg width="24" height="24" viewBox="0 0 24 24" fill="none" xmlns="http://www.w3.org/2000/svg">
<path d="M21.213 7.8125C21.173 7.86674 21.1258 7.9296 21.0716 8.00008H22C21.376 7.58405 21.376 7.58405 21.376 7.58405L21.369 7.59437C21.3628 7.60338 21.3529 7.61783 21.3392 7.63736C21.3119 7.67643 21.2696 7.73577 21.213 7.8125Z" fill="#666666"/>
<path d="M2.62469 7.58499L2.62367 7.58348L2.00002 8.00008H2.92842C2.87426 7.9296 2.82707 7.86674 2.78704 7.8125C2.73041 7.73577 2.68818 7.67643 2.66083 7.63736C2.64716 7.61783 2.63722 7.60338 2.63107 7.59437L2.62469 7.58499Z" fill="#666666"/>
<path d="M1.37598 8.4161L2.00002 8.00008L2.62367 7.58348C2.39377 7.23931 1.92845 7.1464 1.58399 7.37604C1.23935 7.6058 1.14622 8.07146 1.37598 8.4161Z" fill="#666666"/>
<path d="M5.23811 10.4306C4.40208 9.71403 3.74368 8.99593 3.29493 8.45744C3.15009 8.28363 3.02756 8.1291 2.92842 8.00008H2.00002C1.37598 8.4161 1.37673 8.41722 1.37673 8.41722L1.37785 8.41889L1.38119 8.42386L1.39229 8.4402C1.40164 8.4539 1.41489 8.47314 1.43198 8.49756C1.46616 8.54638 1.51572 8.61594 1.58018 8.70328C1.70905 8.87788 1.89781 9.12396 2.1426 9.41771C2.63136 10.0042 3.34796 10.7861 4.26193 11.5695C6.07803 13.1262 8.74659 14.7501 12 14.7501C15.2535 14.7501 17.922 13.1262 19.7381 11.5695C20.6521 10.7861 21.3687 10.0042 21.8574 9.41771C22.1022 9.12396 22.291 8.87788 22.4199 8.70328C22.4843 8.61594 22.5339 8.54638 22.5681 8.49756C22.5851 8.47314 22.5984 8.4539 22.6077 8.4402L22.6188 8.42386L22.6222 8.41889L22.6241 8.4161L22 8.00008H21.0716C20.9725 8.1291 20.8499 8.28363 20.7051 8.45744C20.2564 8.99593 19.598 9.71403 18.7619 10.4306C17.078 11.874 14.7466 13.2501 12 13.2501C9.25345 13.2501 6.92201 11.874 5.23811 10.4306Z" fill="#666666"/>
<path d="M21.376 7.58405L22 8.00008L22.6241 8.4161C22.8538 8.07146 22.7607 7.6058 22.416 7.37604C22.0715 7.14635 21.6058 7.23969 21.376 7.58405Z" fill="#666666"/>
<path fill-rule="evenodd" clip-rule="evenodd" d="M14.6141 12.857C14.9693 12.6438 15.43 12.759 15.6431 13.1142L17.1431 15.6142C17.3562 15.9694 17.2411 16.4301 16.8859 16.6432C16.5307 16.8563 16.07 16.7411 15.8569 16.3859L14.3569 13.8859C14.1438 13.5308 14.259 13.0701 14.6141 12.857Z" fill="#666666"/>
<path fill-rule="evenodd" clip-rule="evenodd" d="M19.4697 10.4697C19.7626 10.1769 20.2375 10.1769 20.5303 10.4697L22.5303 12.4697C22.8232 12.7626 22.8232 13.2375 22.5303 13.5304C22.2375 13.8233 21.7626 13.8233 21.4697 13.5304L19.4697 11.5304C19.1768 11.2375 19.1768 10.7626 19.4697 10.4697Z" fill="#666666"/>
<path fill-rule="evenodd" clip-rule="evenodd" d="M4.53035 10.4697C4.82324 10.7626 4.82324 11.2375 4.53035 11.5304L2.53035 13.5304C2.23746 13.8233 1.76258 13.8233 1.46969 13.5304C1.1768 13.2375 1.1768 12.7626 1.46969 12.4697L3.46969 10.4697C3.76258 10.1769 4.23746 10.1769 4.53035 10.4697Z" fill="#666666"/>
<path fill-rule="evenodd" clip-rule="evenodd" d="M9.38589 12.857C9.74108 13.0701 9.85625 13.5308 9.64314 13.8859L8.14314 16.3859C7.93003 16.7411 7.46933 16.8563 7.11415 16.6432C6.75896 16.4301 6.64379 15.9694 6.8569 15.6142L8.3569 13.1142C8.57001 12.759 9.0307 12.6438 9.38589 12.857Z" fill="#666666"/>
</svg>
